
<svg xmlns="http://www.w3.org/2000/svg" version="1.1" xmlns:xlink="http://www.w3.org/1999/xlink" preserveAspectRatio="none" x="0px" y="0px" width="2900px" height="2900px" viewBox="0 0 2900 2900">
<defs/>

<g id="Camada_1">
<g transform="matrix( 1, 0, 0, 1, 1465.7,1497.9) ">
<g id="Camada_1"/>

<g id="Camada_4"/>
</g>

<g transform="matrix( 1, 0, 0, 1, 490,910) ">
<g>
<g>
<path fill="#000000" stroke="none" d="
M 959.95 -879.85
Q 815.1 -879.85 674.3 -850.95 537.1 -822.75 408 -768.05 281.25 -714.3 166.85 -636.9 53.55 -560.25 -43.4 -463.35 -140.3 -366.4 -216.95 -253.1 -294.35 -138.7 -348.1 -11.95 -402.8 117.2 -431 254.35 -459.9 395.2 -459.9 540.05 -459.9 684.9 -431 825.7 -402.8 962.9 -348.1 1092 -294.35 1218.7 -216.95 1333.15 -140.3 1446.45 -43.4 1543.4 53.5 1640.3 166.85 1716.95 281.25 1794.35 408 1848.1 537.1 1902.8 674.3 1931 815.1 1959.9 959.95 1959.9 1104.8 1959.9 1245.65 1931 1382.8 1902.8 1511.95 1848.1 1638.7 1794.35 1753.1 1716.95 1866.45 1640.3 1963.4 1543.4 2060.3 1446.45 2136.95 1333.15 2214.4 1218.7 2268.1 1092 2322.85 962.9 2351.05 825.7 2379.95 684.85 2379.95 540.05 2379.95 395.2 2351.05 254.35 2322.85 117.15 2268.1 -11.95 2214.35 -138.7 2136.95 -253.1 2060.3 -366.4 1963.35 -463.35 1866.45 -560.25 1753.1 -636.9 1638.65 -714.3 1511.9 -768.05 1382.8 -822.75 1245.6 -850.95 1104.8 -879.85 959.95 -879.85
M 1400.15 -500.5
Q 1501.05 -457.95 1591.95 -396.6 1682 -335.85 1758.9 -258.95 1835.8 -182.05 1896.55 -91.95 1957.9 -1.05 2000.45 99.85 2088.9 309.65 2088.9 540.05 2088.9 770.45 2000.4 980.25 1914.9 1182.95 1758.85 1339 1602.8 1495.05 1400.05 1580.55 1190.25 1669 959.9 1669 729.5 1669 519.7 1580.55 418.85 1538 327.9 1476.65 237.85 1415.9 160.95 1339 4.9 1182.95 -80.6 980.25 -169.05 770.45 -169.05 540.05 -169.05 309.65 -80.55 99.85 -38 -1.05 23.35 -91.95 84.1 -182.05 161 -258.95 237.9 -335.85 328 -396.6 418.9 -457.95 519.8 -500.5 729.6 -588.95 959.95 -588.95 1190.35 -588.95 1400.15 -500.5
M 1498.25 135.7
Q 1479.45 123.25 1458.1 118.65 1436.8 114 1416.15 117.9 1394.85 121.9 1377.35 134.5
L 1041.2 375.85
Q 1041.15 376 1041.15 376.2
L 979.85 420.2 979.85 420.85 959.95 435.1 663.25 256.8
Q 663.2 256.9 663.2 257
L 326.5 54.65
Q 306 42.4 282.65 39.1 260.1 35.85 237.85 41.4 215.65 47 197.15 60.4 178.15 74.4 165.85 94.85 153.5 115.35 150.1 138.75 146.9 161.35 152.4 183.55 158 205.7 171.4 224.2 185.35 243.25 205.85 255.6
L 683.55 542.65
Q 683.65 542.6 683.75 542.55
L 903.35 674.5
Q 934.7 690.65 969 690.75 1004.8 690.95 1030.2 673.25
L 1380.25 421.85
Q 1380.1 421.8 1379.95 421.75
L 1422 391.55 1421.1 391.55 1513.95 324.85
Q 1531.45 312.25 1542.1 293.3 1552.4 275 1554.8 253.3 1557.25 231.7 1551.5 209.85 1545.6 187.35 1531.6 167.95 1517.65 148.55 1498.25 135.7 Z"/>
</g>
</g>
</g>
</g>
</svg>
